<svg width="65" height="65" viewBox="0 0 65 65" fill="none" xmlns="http://www.w3.org/2000/svg">
<circle cx="32.5" cy="32.5" r="32.5" fill="white"/>
<path d="M42.5309 26.1526C43.2521 24.6761 43.6638 23.0759 43.742 21.4446C43.8202 19.8132 43.5633 18.1831 42.9864 16.6483C42.9253 16.4613 42.8088 16.2958 42.6513 16.1723C42.4938 16.0488 42.3024 15.9727 42.1006 15.9535C41.8989 15.9343 41.6957 15.9728 41.5164 16.0643C41.3371 16.1558 41.1895 16.2962 41.0919 16.4681C39.7771 18.7415 36.9509 22.407 34.8803 22.5772H34.7872C33.8352 22.3962 32.8688 22.2956 31.8988 22.2768C30.9254 22.2954 29.9555 22.3959 29.0001 22.5772H28.9276C26.8571 22.417 23.9895 18.7515 22.6644 16.4781C22.5719 16.2962 22.4246 16.1457 22.2419 16.0465C22.0592 15.9473 21.8497 15.904 21.641 15.9225C21.4324 15.9409 21.2344 16.0202 21.0733 16.1498C20.9122 16.2794 20.7956 16.4532 20.7388 16.6483C20.1518 18.1777 19.8852 19.8047 19.9545 21.4347C20.0238 23.0647 20.4277 24.6651 21.1425 26.1426C19.3412 26.3629 17.0533 26.9238 16.2251 28.3359C16.0242 28.6705 15.9183 29.0506 15.9183 29.4375C15.9183 29.8245 16.0242 30.2046 16.2251 30.5392C16.4622 30.9484 16.8152 31.2835 17.2425 31.5053C17.6698 31.7271 18.1537 31.8262 18.6372 31.7911C19.495 31.7741 20.343 31.6114 21.1425 31.3104C21.1354 31.8507 21.1805 32.3905 21.2771 32.9228C21.7392 34.7019 22.345 36.4432 23.0888 38.1306C23.2855 38.6013 23.5029 39.1321 23.6168 39.4526C23.2767 40.2564 23.01 41.0875 22.8196 41.9363C22.7705 42.5361 22.8479 43.1392 23.0472 43.7091C23.2466 44.279 23.5636 44.8037 23.9791 45.2513C25.4802 46.9138 28.1201 47.7551 31.8678 47.7551C35.6154 47.7551 38.2656 46.9138 39.7564 45.2513C40.174 44.805 40.4923 44.2805 40.6918 43.7102C40.8912 43.14 40.9675 42.5362 40.9159 41.9363C40.729 41.0878 40.4658 40.2567 40.1291 39.4526C40.243 39.1321 40.4604 38.6113 40.6467 38.1306C41.3984 36.4461 42.0043 34.7042 42.4584 32.9228C42.5628 32.3914 42.6114 31.8512 42.6033 31.3104C43.3767 31.6025 44.196 31.7651 45.0258 31.7911C45.5107 31.8257 45.9958 31.7265 46.4247 31.5048C46.8535 31.2832 47.2085 30.9484 47.4483 30.5392C47.6492 30.2046 47.7551 29.8245 47.7551 29.4375C47.7551 29.0506 47.6492 28.6705 47.4483 28.3359C46.6305 26.9738 44.3426 26.3729 42.5309 26.1526ZM41.5474 19.5026C41.9207 21.5969 41.5562 23.7519 40.5121 25.6218C40.2526 25.317 39.9762 25.0261 39.6839 24.7505C39.0989 24.2302 38.4313 23.8041 37.7066 23.4886C39.1998 22.368 40.4966 21.0221 41.5474 19.5026ZM22.1778 19.5026C23.2181 21.0327 24.5123 22.3862 26.0082 23.5086C25.2848 23.8155 24.6226 24.2425 24.0516 24.7705C23.7552 25.0453 23.4752 25.3362 23.213 25.6418C22.1659 23.7657 21.8013 21.6034 22.1778 19.5026ZM18.0989 29.5778C18.0057 29.4175 18.0368 29.3674 18.0989 29.3274C18.337 28.9368 19.5379 28.3259 21.8362 28.0955C21.7223 28.386 21.6188 28.6764 21.5256 28.9768C20.1797 29.6479 18.3784 30.0685 18.0989 29.5778ZM40.419 32.5823C39.9854 34.2264 39.4247 35.8366 38.7418 37.3995C38.4714 38.0118 38.233 38.6369 38.0275 39.2723L37.9654 39.5828L38.0793 39.8632C38.4067 40.6269 38.6732 41.4137 38.8764 42.2167C38.8874 42.5326 38.8336 42.8475 38.7181 43.1431C38.6026 43.4388 38.4277 43.7094 38.2035 43.9393C37.4581 44.7706 35.7603 45.7521 31.8781 45.7521C27.9959 45.7521 26.2981 44.7506 25.5527 43.9393C25.1057 43.4714 24.8644 42.8537 24.8798 42.2167C25.0872 41.4136 25.3571 40.6269 25.6873 39.8632L25.8012 39.5828L25.7287 39.2723C25.5343 38.6313 25.2992 38.0025 25.0247 37.3895C24.3299 35.8187 23.7623 34.1981 23.3269 32.5422C23.1295 31.3879 23.2262 30.2044 23.6086 29.0944C23.9911 27.9844 24.6478 26.9815 25.5217 26.1726C27.0849 24.6503 30.6255 24.3098 31.8574 24.2998C33.0894 24.2898 36.5575 24.6403 38.2139 26.1927C39.0931 26.9938 39.7543 27.9925 40.139 29.1001C40.5236 30.2077 40.6198 31.39 40.419 32.5422V32.5823ZM45.5952 29.5778C45.3261 30.0585 43.5247 29.6479 42.241 28.9869C42.1582 28.6864 42.0547 28.396 41.9408 28.0955C44.2183 28.3259 45.4089 28.9368 45.6366 29.3274C45.6884 29.3674 45.7091 29.4175 45.6159 29.5778H45.5952Z" fill="#FF572B"/>
</svg>
