<svg width="65" height="65" viewBox="0 0 65 65" fill="none" xmlns="http://www.w3.org/2000/svg">
<circle cx="32.5" cy="32.5" r="32.5" fill="white"/>
<path d="M42.4388 35.2814C41.9764 25.1237 32.9846 15.2868 32.5838 14.8591C32.5838 14.8591 32.5838 14.8591 32.5324 14.8591L32.4091 14.7201L32.2755 14.6346H31.7L31.5048 14.5918H31.4534L31.2684 14.7201L31.1554 14.8163C31.1554 14.8163 31.1554 14.8163 31.104 14.8163C30.7032 15.2868 21.7114 25.1344 21.2284 35.2814C21.2233 35.3561 21.2233 35.4312 21.2284 35.5059C21.2284 35.8908 21.2284 36.2758 21.2284 36.6714C21.6189 47.6844 31.5048 50.3789 31.587 50.4003H31.8439C31.9293 50.4107 32.0155 50.4107 32.1008 50.4003C32.1933 50.4003 42.0689 47.631 42.4491 36.6714C42.4491 36.2758 42.4491 35.8908 42.4491 35.5059C42.4491 35.4311 42.4388 35.3562 42.4388 35.2814ZM23.9414 31.5284C25.994 33.3641 28.3148 34.8475 30.8163 35.9229V40.7879C28.2986 39.4941 24.4244 37.1953 23.2837 35.1745C23.3763 33.9405 23.5862 32.7192 23.9106 31.5284H23.9414ZM25.9967 26.0753C27.3408 27.5361 28.9898 28.6556 30.8163 29.3472V33.5599C28.5202 32.5516 26.4281 31.1004 24.6505 29.283C25.0414 28.1885 25.4908 27.1176 25.9967 26.0753ZM39.0579 29.283C37.281 31.1014 35.1888 32.5527 32.8921 33.5599V29.3472C34.7038 28.6498 36.3383 27.5307 37.6706 26.0753C38.189 27.1027 38.6522 28.1593 39.0579 29.2402V29.283ZM32.8921 27.0804V18.5266C34.2655 20.2791 35.5189 22.1298 36.643 24.0652C35.6518 25.3763 34.353 26.4 32.8715 27.0376L32.8921 27.0804ZM32.8921 40.8093V35.9229C35.4031 34.8571 37.7344 33.3808 39.7978 31.5498C40.1126 32.7451 40.3122 33.9701 40.3938 35.2065C39.2634 37.1953 35.3892 39.4835 32.8715 40.7665L32.8921 40.8093ZM30.8368 27.0804C29.3486 26.4346 28.0484 25.3951 27.0654 24.0652C28.1874 22.1115 29.4409 20.2428 30.8163 18.4731L30.8368 27.0804ZM23.4995 38.5532C25.747 40.3907 28.2047 41.9314 30.8163 43.1402V47.8448C28.948 47.055 27.2996 45.7909 26.0215 44.1678C24.7434 42.5448 23.8764 40.6145 23.4995 38.5532ZM32.8715 47.8555V43.1295C35.4853 41.9295 37.9435 40.3919 40.1883 38.5532C39.8275 40.6223 38.9665 42.5618 37.6865 44.1892C36.4065 45.8166 34.7495 47.0783 32.8715 47.8555Z" fill="#FF572B"/>
</svg>
