<svg width="65" height="65" viewBox="0 0 65 65" fill="none" xmlns="http://www.w3.org/2000/svg">
<circle cx="32.5" cy="32.5" r="32.5" fill="white"/>
<path d="M31.8369 10.6123C29.2395 10.6153 26.7332 11.5697 24.7916 13.295C22.8501 15.0203 21.6078 17.397 21.2995 19.9761H21.2246V41.0507H42.4491V19.9761H42.3742C42.0659 17.397 40.8236 15.0203 38.8821 13.295C36.9405 11.5697 34.4342 10.6153 31.8369 10.6123ZM39.9521 38.5537H23.7216V27.0426C23.9532 27.3218 24.2492 27.5405 24.5842 27.6797C24.9192 27.8189 25.283 27.8745 25.6443 27.8416C27.2549 27.8416 28.3036 26.9427 28.3036 25.8065V24.7203C28.2874 24.5705 28.3029 24.4189 28.3491 24.2754C28.3954 24.1319 28.4713 23.9997 28.572 23.8875C28.6727 23.7754 28.7959 23.6856 28.9336 23.6242C29.0712 23.5628 29.2203 23.531 29.3711 23.531C29.5218 23.531 29.6709 23.5628 29.8086 23.6242C29.9462 23.6856 30.0694 23.7754 30.1701 23.8875C30.2708 23.9997 30.3468 24.1319 30.393 24.2754C30.4393 24.4189 30.4548 24.5705 30.4385 24.7203V28.8279C30.4426 29.1584 30.5169 29.4843 30.6563 29.784C30.7958 30.0836 30.9973 30.3503 31.2475 30.5663C31.4977 30.7823 31.7909 30.9427 32.1077 31.0368C32.4246 31.131 32.7578 31.1569 33.0854 31.1127C33.4051 31.1582 33.7309 31.1365 34.0418 31.049C34.3527 30.9615 34.642 30.8102 34.8911 30.6045C35.1402 30.3989 35.3436 30.1436 35.4885 29.8549C35.6333 29.5662 35.7163 29.2504 35.7322 28.9278V26.1686C35.7121 25.9359 35.7406 25.7016 35.8159 25.4805C35.8911 25.2594 36.0115 25.0564 36.1694 24.8843C36.3273 24.7122 36.5192 24.5747 36.733 24.4807C36.9468 24.3867 37.1778 24.3382 37.4114 24.3382C37.645 24.3382 37.876 24.3867 38.0898 24.4807C38.3036 24.5747 38.4955 24.7122 38.6534 24.8843C38.8113 25.0564 38.9317 25.2594 39.007 25.4805C39.0822 25.7016 39.1107 25.9359 39.0906 26.1686C39.0865 26.2059 39.0865 26.2436 39.0906 26.281C39.1222 26.5227 39.2158 26.7521 39.3624 26.9468C39.509 27.1415 39.7036 27.295 39.9271 27.3921V38.6286L39.9521 38.5537Z" fill="#FF572B"/>
<path d="M29.9641 51.1885C29.9641 51.6852 30.1614 52.1616 30.5126 52.5128C30.8638 52.864 31.3402 53.0613 31.8369 53.0613C32.3335 53.0613 32.8099 52.864 33.1611 52.5128C33.5123 52.1616 33.7096 51.6852 33.7096 51.1885V42.2992H29.9641V51.1885Z" fill="#FF572B"/>
</svg>
