<svg width="12" height="19" viewBox="0 0 12 19" fill="none" xmlns="http://www.w3.org/2000/svg">
<path d="M2.43429 1.1028L2.434 1.10253C2.2585 0.939734 2.02298 0.85 1.77949 0.85C1.53606 0.85 1.30059 0.939689 1.12511 1.10241C1.03874 1.18218 0.96955 1.27766 0.922104 1.38367C0.874618 1.48976 0.85 1.60399 0.85 1.71965C0.85 1.83531 0.874618 1.94953 0.922104 2.05562C0.969542 2.16161 1.03871 2.25708 1.12506 2.33684C1.12512 2.33689 1.12518 2.33695 1.12523 2.337L8.91081 9.56997L1.12523 16.8451C1.12513 16.8452 1.12503 16.8453 1.12493 16.8454C1.03864 16.9252 0.969518 17.0206 0.922104 17.1265C0.874618 17.2326 0.85 17.3468 0.85 17.4625C0.85 17.5782 0.874618 17.6924 0.922104 17.7985C0.969574 17.9045 1.03881 18.0001 1.12523 18.0799L1.12493 18.0802L1.13409 18.0874C1.31603 18.2309 1.54816 18.3029 1.78282 18.2911C1.90115 18.2918 2.01863 18.2698 2.128 18.2262C2.23796 18.1823 2.3377 18.1174 2.42059 18.035L10.8748 10.2084L10.773 10.0982L10.8749 10.2083L10.8749 10.2083C10.9613 10.1286 11.0304 10.0331 11.0779 9.92705C11.1254 9.82096 11.15 9.70673 11.15 9.59107C11.15 9.47542 11.1254 9.36119 11.0779 9.2551C11.0305 9.14915 10.9613 9.05372 10.875 8.97398C10.875 8.97389 10.8749 8.97381 10.8748 8.97372L2.43429 1.1028Z" fill="white" stroke="white" stroke-width="0.3"/>
</svg>
