<?xml version="1.0" encoding="utf-8"?>
<!-- Generator: Adobe Illustrator 25.0.1, SVG Export Plug-In . SVG Version: 6.00 Build 0)  -->
<svg xmlns="http://www.w3.org/2000/svg" xmlns:xlink="http://www.w3.org/1999/xlink" width="17" height="17"
	 viewBox="0 0 17 17" >

<g transform="translate(-1043 -3176)">
	<path  d="M1054.8,3186.3c1.7-2.3,1.7-5.4,0-7.7c-2.1-2.9-6.2-3.5-9.1-1.4c-2.9,2.1-3.5,6.2-1.4,9.1
		c2.1,2.9,6.2,3.5,9.1,1.4l5.2,5.2l1.4-1.4L1054.8,3186.3z M1049.5,3187c-2.5,0-4.5-2-4.5-4.5c0-2.5,2-4.5,4.5-4.5s4.5,2,4.5,4.5
		C1054,3185,1052,3187,1049.5,3187z"/>
</g>
</svg>
