<svg width="65" height="65" viewBox="0 0 65 65" fill="none" xmlns="http://www.w3.org/2000/svg">
<circle cx="32.5" cy="32.5" r="32.5" fill="white"/>
<path d="M36.5996 20.0557C36.5996 18.6066 36.0406 17.2168 35.0455 16.1921C34.0504 15.1675 32.7008 14.5918 31.2935 14.5918C29.8863 14.5918 28.5366 15.1675 27.5415 16.1921C26.5465 17.2168 25.9874 18.6066 25.9874 20.0557V35.9586C24.6271 37.3882 23.869 39.3124 23.8776 41.3138C23.874 42.5957 24.1794 43.8584 24.7663 44.9887C25.3533 46.1191 26.2036 47.0817 27.2409 47.7904C28.2781 48.499 29.47 48.9315 30.7095 49.049C31.9491 49.1665 33.1976 48.9653 34.3431 48.4636C35.4886 47.9619 36.4952 47.1752 37.2727 46.1742C38.0502 45.1732 38.5743 43.9891 38.798 42.7281C39.0216 41.4672 38.9378 40.1687 38.5542 38.9493C38.1705 37.7299 37.4989 36.6276 36.5996 35.7413V20.0557ZM36.7895 41.3138C36.8002 42.2617 36.5754 43.1967 36.1364 44.03C35.6975 44.8633 35.0591 45.5672 34.2817 46.0749C33.5042 46.5826 32.6137 46.8773 31.6946 46.931C30.7755 46.9847 29.8583 46.7955 29.0302 46.3816C28.202 45.9676 27.4904 45.3425 26.9628 44.5657C26.4352 43.7888 26.1092 42.886 26.0157 41.943C25.9222 40.9999 26.0644 40.0479 26.4287 39.1773C26.793 38.3068 27.3673 37.5465 28.0972 36.9688V20.0557C28.0972 19.1828 28.434 18.3456 29.0334 17.7283C29.6328 17.1111 30.4458 16.7643 31.2935 16.7643C32.1412 16.7643 32.9542 17.1111 33.5537 17.7283C34.1531 18.3456 34.4898 19.1828 34.4898 20.0557V36.7624C35.2018 37.2733 35.7829 37.9542 36.1834 38.7468C36.5839 39.5395 36.7919 40.4203 36.7895 41.3138Z" fill="#FF572B"/>
<path d="M32.4434 37.9138V20.1317C32.4434 19.8436 32.3322 19.5673 32.1344 19.3636C31.9366 19.1599 31.6682 19.0455 31.3885 19.0455C31.1087 19.0455 30.8404 19.1599 30.6425 19.3636C30.4447 19.5673 30.3336 19.8436 30.3336 20.1317V37.9138C29.6297 38.1701 29.0365 38.6743 28.6588 39.3374C28.2811 40.0004 28.1431 40.7797 28.2694 41.5373C28.3956 42.295 28.7779 42.9823 29.3487 43.4778C29.9194 43.9733 30.6419 44.245 31.3885 44.245C32.135 44.245 32.8575 43.9733 33.4283 43.4778C33.999 42.9823 34.3813 42.295 34.5076 41.5373C34.6338 40.7797 34.4959 40.0004 34.1181 39.3374C33.7404 38.6743 33.1472 38.1701 32.4434 37.9138Z" fill="#FF572B"/>
<path d="M45.1021 18.8391H38.7727V21.0116H45.1021V18.8391Z" fill="#FF572B"/>
<path d="M45.1021 23.1841H38.7727V25.3567H45.1021V23.1841Z" fill="#FF572B"/>
<path d="M45.1021 27.5292H38.7727V29.7017H45.1021V27.5292Z" fill="#FF572B"/>
<path d="M45.1021 31.8742H38.7727V34.0468H45.1021V31.8742Z" fill="#FF572B"/>
</svg>
